<?xml version="1.0" encoding="UTF-8"?>
<!-- Generator: Adobe Illustrator 22.1.0, SVG Export Plug-In . SVG Version: 6.00 Build 0)  -->
<svg version="1.1" id="Logo" xmlns="http://www.w3.org/2000/svg" xmlns:xlink="http://www.w3.org/1999/xlink" x="0px" y="0px" viewBox="0 0 604.6 244" style="enable-background:new 0 0 604.6 244;" xml:space="preserve">
<style type="text/css">
	.st0{fill:#FFFFFF;}
	.st1{fill:#EE7F00;}
</style>
<g>
	<path class="st0" d="M56.7,0C34.9,0,15.4,9.5,2,24.6h26.4v46.1l40.3-40.3l20,20L48.4,90.8h46.1v28.3H28.4v0H0   c13.4,16.5,33.8,27,56.7,27c40.3,0,73-32.7,73-73C129.7,32.7,97,0,56.7,0z"/>
	<rect x="0" y="90.8" class="st1" width="28.3" height="28.3"/>
</g>
<path class="st0" d="M3.1,182.8c0.1,11.1,8.3,19.2,18.7,19.2c10,0,14.5-5.5,16.6-11.1h3.2c-3,9.2-9.8,14.2-19.8,14.2  C9.6,205.2,0,195.4,0,183c0-12.4,9.5-22.5,21.2-22.5c12.7,0,21.4,11.6,21.2,22.3H3.1L3.1,182.8z M39.2,179.8  c-1.5-9.2-9-16.1-17.9-16.1c-9,0-16.4,6.9-17.8,16.1H39.2z"/>
<path class="st0" d="M83.9,204.2h-3.1v-7c-2.9,5-8.2,8-14.9,8c-10.3,0-17.8-7.5-17.8-17.8v-25.7h3.1v25.7c0,8.6,6.3,14.8,14.8,14.8  c8.7,0,14.9-6.2,14.9-14.8v-25.7h3.1L83.9,204.2L83.9,204.2z"/>
<path class="st0" d="M113.7,163.5c-5.6-0.5-9.9,1.1-12.6,3.6c-3.1,2.7-4.7,6.9-4.7,11.3v25.7h-3.1v-42.5h3.1v7.1  c0.7-1.4,1.7-2.7,2.8-3.8c3.7-3.3,8.7-4.9,14.5-4.2L113.7,163.5L113.7,163.5z"/>
<path class="st0" d="M147,204.2c-0.7-1.6-1.2-3.6-1.2-6.2v-0.8c-3.4,4.8-9.9,7.8-18.3,7.8c-7.4,0-15.4-3.7-15.4-11.9  c0-9.7,9-11.9,18.1-12.7c9.4-0.9,15.7-1.9,15.7-7.1c0-7.8-7.4-9.7-13.7-9.7c-7.8,0-12.9,3.2-14.7,9h-3.1c1.9-7.6,8.3-12,17.8-12  c10.7,0,16.8,4.6,16.8,12.6v24c0,2.1,0.6,5.3,1.2,6.9L147,204.2L147,204.2z M145.8,179c-3.3,3.1-9.5,3.6-15.4,4.1  c-10.9,1.1-15.1,4-15.1,9.8c0,7,7.9,8.9,12.1,8.9c9.2,0,18.3-4.1,18.3-13.1V179z"/>
<path class="st0" d="M174,204.2c-9.9,1.2-16.8-4.7-16.8-15.5v-36.1h6.9v9.1h9.7v6.7h-9.7v20.3c0,7.5,4.5,9.4,9.8,9.1L174,204.2  L174,204.2z"/>
<path class="st0" d="M216.9,190.9c-3,9.1-10.2,14.2-20.1,14.2c-12.2,0-21.8-9.7-21.8-22.2c0-12.3,9.6-22.4,21.4-22.4  c11,0,21.6,9.1,21.5,24.2h-35.8c0.9,8.8,7.7,14,14.7,14c6,0,10.3-2.9,12.6-7.8L216.9,190.9L216.9,190.9z M210.1,178.5  c-1.7-6.9-7.5-11.6-13.7-11.6c-5.9,0-12.1,4.3-13.9,11.6H210.1z"/>
<path class="st0" d="M288.8,204.2h-6.9v-25.9c0-6.6-3.6-11.3-10.4-11.3c-6.4,0-11.2,4.8-11.2,11.2v26h-7v-51.6h7v13.4  c2.9-3.3,7.1-5.4,12.1-5.4c10.4,0,16.4,7.4,16.4,18L288.8,204.2L288.8,204.2z"/>
<path class="st0" d="M331.6,204.2h-6.9v-25.9c0-6.5-3.6-11.3-10.4-11.3c-6.4,0-11.2,4.8-11.2,11.2v26h-7v-42.5h6.8v4.6  c2.9-3.6,7.3-5.7,12.4-5.7c10.4,0,16.4,7.4,16.4,18L331.6,204.2L331.6,204.2z"/>
<path class="st0" d="M381.7,183c0,12.2-9.3,22.1-21.4,22.1c-12.1,0-21.4-9.9-21.4-22.1c0-12.4,9.3-22.5,21.4-22.5  C372.5,160.5,381.7,170.6,381.7,183z M374.7,183c0-8.8-6.4-16-14.4-16c-7.8,0-14.3,7.2-14.3,16c0,8.7,6.4,15.7,14.3,15.7  C368.3,198.7,374.7,191.7,374.7,183z"/>
<path class="st0" d="M396.1,204.2h-7v-51.6h7V204.2z"/>
<path class="st0" d="M446.2,183c0,12.2-9.3,22.1-21.4,22.1c-12.1,0-21.4-9.9-21.4-22.1c0-12.4,9.3-22.5,21.4-22.5  C437,160.5,446.2,170.6,446.2,183z M439.2,183c0-8.8-6.4-16-14.4-16c-7.9,0-14.3,7.2-14.3,16c0,8.7,6.4,15.7,14.3,15.7  C432.7,198.7,439.2,191.7,439.2,183z"/>
<path class="st0" d="M496.3,202.2c0,13.6-8.8,22.9-21.9,22.9c-10.1,0-17.9-5.4-20.1-14h7.4c2.8,6.4,9.6,7.3,12.7,7.3  c10.9,0,14.9-8.4,14.9-16.1v-4.5c-3.1,4.1-8.3,7.5-14.5,7.5c-12.2,0-21.3-10-21.3-22.3c0-12.3,9.1-22.4,21.3-22.4  c6.3,0,11.7,3.6,14.7,7.9v-6.8h6.8L496.3,202.2L496.3,202.2z M474.8,167.1c-8,0-14.3,7.1-14.3,15.9c0,8.7,6.3,15.8,14.3,15.8  c7.8,0,14.5-7.1,14.5-15.8C489.3,174.2,482.7,167.1,474.8,167.1z"/>
<path class="st0" d="M511.2,155.2h-7v-7h7V155.2z M511.2,204.2h-7v-42.5h7V204.2z"/>
<path class="st0" d="M560.4,190.9c-3,9.1-10.2,14.2-20.1,14.2c-12.2,0-21.8-9.7-21.8-22.2c0-12.3,9.6-22.4,21.4-22.4  c11,0,21.6,9.1,21.5,24.2h-35.8c0.9,8.8,7.7,14,14.7,14c6,0,10.3-2.9,12.6-7.9L560.4,190.9L560.4,190.9z M553.6,178.5  c-1.7-6.9-7.5-11.6-13.7-11.6c-5.9,0-12.1,4.3-13.9,11.6H553.6z"/>
<path class="st0" d="M587.2,205.2c-10.3,0-17.8-5.5-19-14.5h7.1c0.9,5,5.8,8,11.9,8c6.6,0,10.7-3.2,10.7-6.9c0-3-1.2-5.2-11.6-6.6  c-10.3-1.5-16.6-4-16.6-12c0-6.1,5.3-12.6,16.7-12.6c9.8,0,16.4,5,17.3,13.3h-7.1c-1-4.5-5-6.9-10.2-6.9c-5.6,0-9.7,2.6-9.7,5.9  c0,3.1,2.4,4.1,10.7,5.5c9.4,1.5,17.2,3.3,17.2,13C604.6,199.9,597.3,205.2,587.2,205.2z"/>
<path class="st0" d="M246.3,198.6c-0.6,0.1-1.3,0.1-1.9,0.1c-7.8,0-14.3-7-14.3-15.8c0-8.8,6.4-15.9,14.3-15.9  c0.7,0,1.3,0.1,1.9,0.1v-6.5c-0.6-0.1-1.3-0.1-1.9-0.1c-11.7,0-21.3,10.1-21.3,22.4c0,12.3,9.6,22.2,21.3,22.2c0.6,0,1.3,0,1.9-0.1  V198.6z"/>
<g>
	<path class="st0" d="M15.7,229.7v3.3H2.4v-19.2h13.1v3.3H6.1v4.6h8.1v3H6.1v5H15.7z"/>
	<path class="st0" d="M23.6,213.8l4.8,7.1l4.8-7.1h4l-6.8,9.7l6.6,9.5h-4l-4.5-6.9l-4.6,6.9h-4.1l6.6-9.5l-6.8-9.7H23.6z"/>
	<path class="st0" d="M40.1,223.3c0-1.2,0.2-2.3,0.6-3.5c0.4-1.1,1-2.2,1.8-3.1c0.8-0.9,1.8-1.6,3-2.2c1.2-0.6,2.5-0.8,4-0.8   c1.8,0,3.3,0.4,4.6,1.2c1.3,0.8,2.2,1.8,2.9,3l-2.9,2c-0.3-0.5-0.6-1-0.9-1.4c-0.4-0.4-0.7-0.7-1.2-0.9s-0.8-0.4-1.3-0.5   c-0.5-0.1-0.9-0.1-1.3-0.1c-0.9,0-1.8,0.2-2.4,0.6s-1.3,0.9-1.7,1.5s-0.8,1.3-1,2.1c-0.2,0.8-0.4,1.5-0.4,2.3   c0,0.8,0.1,1.7,0.4,2.4c0.3,0.8,0.7,1.5,1.1,2.1c0.5,0.6,1.1,1.1,1.8,1.4c0.7,0.4,1.5,0.5,2.3,0.5c0.4,0,0.9-0.1,1.4-0.2   c0.5-0.1,0.9-0.3,1.3-0.5c0.4-0.2,0.8-0.5,1.2-0.9c0.4-0.4,0.6-0.8,0.9-1.3l3.1,1.8c-0.3,0.7-0.7,1.4-1.3,1.9   c-0.6,0.5-1.2,1-1.9,1.4c-0.7,0.4-1.5,0.7-2.3,0.9c-0.8,0.2-1.6,0.3-2.4,0.3c-1.4,0-2.6-0.3-3.8-0.9c-1.1-0.6-2.1-1.3-2.9-2.3   c-0.8-0.9-1.5-2-1.9-3.2S40.1,224.5,40.1,223.3z"/>
	<path class="st0" d="M76.2,229.7v3.3H62.8v-19.2h13.1v3.3h-9.3v4.6h8.1v3h-8.1v5H76.2z"/>
	<path class="st0" d="M82.1,233v-19.2h3.7v15.9h9.8v3.3H82.1z"/>
	<path class="st0" d="M100.9,233v-19.2h3.7v15.9h9.8v3.3H100.9z"/>
	<path class="st0" d="M133.1,229.7v3.3h-13.3v-19.2h13.1v3.3h-9.3v4.6h8.1v3h-8.1v5H133.1z"/>
	<path class="st0" d="M142.8,220.7V233H139v-19.2h2.9l10,12.6v-12.6h3.7V233h-3L142.8,220.7z"/>
	<path class="st0" d="M161.5,223.3c0-1.2,0.2-2.3,0.6-3.5c0.4-1.1,1-2.2,1.8-3.1c0.8-0.9,1.8-1.6,3-2.2c1.2-0.6,2.5-0.8,4-0.8   c1.8,0,3.3,0.4,4.6,1.2c1.3,0.8,2.2,1.8,2.9,3l-2.9,2c-0.3-0.5-0.6-1-0.9-1.4s-0.7-0.7-1.2-0.9s-0.8-0.4-1.3-0.5   c-0.5-0.1-0.9-0.1-1.3-0.1c-0.9,0-1.8,0.2-2.4,0.6s-1.3,0.9-1.7,1.5s-0.8,1.3-1,2.1c-0.2,0.8-0.4,1.5-0.4,2.3   c0,0.8,0.1,1.7,0.4,2.4c0.3,0.8,0.7,1.5,1.1,2.1c0.5,0.6,1.1,1.1,1.8,1.4c0.7,0.4,1.5,0.5,2.3,0.5c0.4,0,0.9-0.1,1.4-0.2   c0.5-0.1,0.9-0.3,1.3-0.5c0.4-0.2,0.8-0.5,1.2-0.9c0.4-0.4,0.6-0.8,0.9-1.3l3.1,1.8c-0.3,0.7-0.7,1.4-1.3,1.9   c-0.6,0.5-1.2,1-1.9,1.4s-1.5,0.7-2.3,0.9c-0.8,0.2-1.6,0.3-2.4,0.3c-1.4,0-2.6-0.3-3.8-0.9c-1.1-0.6-2.1-1.3-2.9-2.3   c-0.8-0.9-1.5-2-1.9-3.2S161.5,224.5,161.5,223.3z"/>
	<path class="st0" d="M197.6,229.7v3.3h-13.3v-19.2h13.1v3.3H188v4.6h8.1v3H188v5H197.6z"/>
	<path class="st0" d="M225.5,233l-1.5-1.6c-0.8,0.6-1.6,1.1-2.6,1.4c-0.9,0.3-1.9,0.5-2.8,0.5c-1,0-1.9-0.2-2.7-0.5   c-0.8-0.3-1.5-0.7-2-1.2c-0.6-0.5-1-1.1-1.3-1.8c-0.3-0.7-0.5-1.4-0.5-2.2c0-0.6,0.1-1.1,0.3-1.6s0.4-1,0.7-1.4   c0.3-0.4,0.7-0.8,1.1-1.2c0.4-0.4,0.8-0.7,1.3-1c-0.8-0.9-1.3-1.6-1.6-2.2s-0.5-1.3-0.5-2c0-0.7,0.1-1.3,0.4-1.9   c0.3-0.6,0.6-1.1,1.1-1.5c0.5-0.4,1-0.7,1.7-0.9s1.3-0.3,2.1-0.3c0.7,0,1.3,0.1,1.9,0.3c0.6,0.2,1.2,0.4,1.6,0.8   c0.5,0.4,0.8,0.8,1.1,1.3c0.3,0.5,0.4,1.1,0.4,1.8c0,1-0.3,2-0.9,2.7s-1.4,1.5-2.3,2.2l3.7,3.8c0.3-0.6,0.5-1.2,0.6-1.9   c0.2-0.7,0.2-1.4,0.2-2.2h2.9c0,1.3-0.2,2.4-0.5,3.5s-0.7,2-1.2,2.9l4,4.2H225.5z M219,230.4c1.1,0,2.2-0.4,3.1-1.1l-4.4-4.7   c-0.6,0.5-1.1,0.9-1.5,1.4c-0.4,0.5-0.5,1-0.5,1.6c0,0.4,0.1,0.7,0.2,1.1c0.2,0.4,0.4,0.7,0.7,0.9c0.3,0.3,0.7,0.5,1.1,0.6   C218,230.4,218.5,230.4,219,230.4z M216.7,218.1c0,0.2,0,0.3,0.1,0.5c0.1,0.2,0.1,0.3,0.3,0.5s0.3,0.4,0.5,0.6   c0.2,0.2,0.5,0.5,0.8,0.9c0.7-0.5,1.2-0.9,1.6-1.3c0.4-0.4,0.5-0.9,0.5-1.3s-0.2-0.9-0.5-1.2c-0.3-0.3-0.8-0.4-1.3-0.4   c-0.6,0-1,0.2-1.4,0.5C216.9,217.1,216.7,217.6,216.7,218.1z"/>
	<path class="st0" d="M244.9,233v-19.2h3.7V233H244.9z"/>
	<path class="st0" d="M259.4,220.7V233h-3.7v-19.2h2.9l10,12.6v-12.6h3.7V233h-3L259.4,220.7z"/>
	<path class="st0" d="M283,220.7V233h-3.7v-19.2h2.9l10,12.6v-12.6h3.7V233h-3L283,220.7z"/>
	<path class="st0" d="M311.1,233.1c-1.4,0-2.7-0.3-3.8-0.8c-1.1-0.5-2.1-1.3-2.9-2.2c-0.8-0.9-1.5-1.9-1.9-3.1   c-0.5-1.2-0.7-2.4-0.7-3.6c0-1.3,0.2-2.5,0.7-3.7c0.5-1.2,1.1-2.2,2-3.1c0.8-0.9,1.8-1.6,3-2.1c1.2-0.5,2.4-0.8,3.8-0.8   c1.4,0,2.7,0.3,3.8,0.9c1.1,0.6,2.1,1.3,2.9,2.2c0.8,0.9,1.4,2,1.9,3.1c0.4,1.2,0.7,2.4,0.7,3.6c0,1.3-0.2,2.5-0.7,3.7   c-0.5,1.2-1.1,2.2-1.9,3.1c-0.8,0.9-1.8,1.6-3,2.1C313.7,232.9,312.5,233.1,311.1,233.1z M305.6,223.4c0,0.8,0.1,1.6,0.4,2.4   c0.3,0.8,0.6,1.5,1.1,2.1c0.5,0.6,1.1,1.1,1.8,1.4c0.7,0.4,1.5,0.5,2.4,0.5c0.9,0,1.7-0.2,2.4-0.6c0.7-0.4,1.3-0.9,1.8-1.5   c0.5-0.6,0.8-1.3,1.1-2.1c0.2-0.8,0.4-1.5,0.4-2.3c0-0.8-0.1-1.6-0.4-2.4c-0.3-0.8-0.6-1.5-1.1-2.1c-0.5-0.6-1.1-1.1-1.8-1.4   c-0.7-0.4-1.5-0.5-2.3-0.5c-0.9,0-1.7,0.2-2.4,0.6c-0.7,0.4-1.3,0.9-1.8,1.5c-0.5,0.6-0.8,1.3-1.1,2.1   C305.7,221.8,305.6,222.6,305.6,223.4z"/>
	<path class="st0" d="M327.7,213.8l5.2,14.5l5.1-14.5h3.9l-7.5,19.2h-3.1l-7.5-19.2H327.7z"/>
	<path class="st0" d="M350.8,213.8h3.3l7.3,19.2h-3.8l-1.8-4.8h-6.7l-1.8,4.8h-3.8L350.8,213.8z M355.1,225.6l-2.6-7.5l-2.8,7.5   H355.1z"/>
	<path class="st0" d="M379,217.1h-6.1V233h-3.7v-15.9h-6.1v-3.3h16V217.1z"/>
	<path class="st0" d="M384.4,233v-19.2h3.7V233H384.4z"/>
	<path class="st0" d="M403.4,233.1c-1.4,0-2.7-0.3-3.8-0.8c-1.1-0.5-2.1-1.3-2.9-2.2c-0.8-0.9-1.5-1.9-1.9-3.1   c-0.5-1.2-0.7-2.4-0.7-3.6c0-1.3,0.2-2.5,0.7-3.7c0.5-1.2,1.1-2.2,2-3.1c0.8-0.9,1.8-1.6,3-2.1c1.2-0.5,2.4-0.8,3.8-0.8   c1.4,0,2.7,0.3,3.8,0.9c1.1,0.6,2.1,1.3,2.9,2.2c0.8,0.9,1.4,2,1.9,3.1c0.4,1.2,0.7,2.4,0.7,3.6c0,1.3-0.2,2.5-0.7,3.7   c-0.5,1.2-1.1,2.2-1.9,3.1c-0.8,0.9-1.8,1.6-3,2.1C406,232.9,404.7,233.1,403.4,233.1z M397.8,223.4c0,0.8,0.1,1.6,0.4,2.4   c0.3,0.8,0.6,1.5,1.1,2.1c0.5,0.6,1.1,1.1,1.8,1.4c0.7,0.4,1.5,0.5,2.4,0.5c0.9,0,1.7-0.2,2.4-0.6c0.7-0.4,1.3-0.9,1.8-1.5   c0.5-0.6,0.8-1.3,1.1-2.1c0.2-0.8,0.4-1.5,0.4-2.3c0-0.8-0.1-1.6-0.4-2.4c-0.3-0.8-0.6-1.5-1.1-2.1c-0.5-0.6-1.1-1.1-1.8-1.4   c-0.7-0.4-1.5-0.5-2.3-0.5c-0.9,0-1.7,0.2-2.4,0.6c-0.7,0.4-1.3,0.9-1.8,1.5c-0.5,0.6-0.8,1.3-1.1,2.1   C397.9,221.8,397.8,222.6,397.8,223.4z"/>
	<path class="st0" d="M422.4,220.7V233h-3.7v-19.2h2.9l10,12.6v-12.6h3.7V233h-3L422.4,220.7z"/>
</g>
<image style="display:none;overflow:visible;enable-background:new    ;" width="737" height="312" id="EURATECHNOLOGIES-LOGO-orange-2018-_x28_2_x29_" xlink:href="BAA801FCE1F57939.png" transform="matrix(1 0 0 1 -55 -50)">
</image>
</svg>